<?xml version="1.0" standalone="no"?>
<!DOCTYPE svg PUBLIC "-//W3C//DTD SVG 20010904//EN"
 "http://www.w3.org/TR/2001/REC-SVG-20010904/DTD/svg10.dtd">
<svg version="1.0" xmlns="http://www.w3.org/2000/svg"
 width="1525.000000pt" height="1041.000000pt" viewBox="0 0 1525.000000 1041.000000"
 preserveAspectRatio="xMidYMid meet">

<g transform="translate(0.000000,1041.000000) scale(0.100000,-0.100000)"
fill="#000000" stroke="none">
<path d="M0 5205 l0 -5205 7625 0 7625 0 0 5205 0 5205 -7625 0 -7625 0 0
-5205z m9033 2038 c-13 -2 -33 -2 -45 0 -13 2 -3 4 22 4 25 0 35 -2 23 -4z
m-230 -10 c-7 -2 -21 -2 -30 0 -10 3 -4 5 12 5 17 0 24 -2 18 -5z m-850 -120
c-18 -2 -48 -2 -65 0 -18 2 -4 4 32 4 36 0 50 -2 33 -4z m-230 -10 c-7 -2 -21
-2 -30 0 -10 3 -4 5 12 5 17 0 24 -2 18 -5z m-430 -20 c-13 -2 -33 -2 -45 0
-13 2 -3 4 22 4 25 0 35 -2 23 -4z m-250 -10 c-7 -2 -19 -2 -25 0 -7 3 -2 5
12 5 14 0 19 -2 13 -5z m-150 -10 c-7 -2 -21 -2 -30 0 -10 3 -4 5 12 5 17 0
24 -2 18 -5z m-240 -10 c-7 -2 -21 -2 -30 0 -10 3 -4 5 12 5 17 0 24 -2 18 -5z
m-4090 -70 c-7 -2 -19 -2 -25 0 -7 3 -2 5 12 5 14 0 19 -2 13 -5z m-206 -9
c-3 -3 -12 -4 -19 -1 -8 3 -5 6 6 6 11 1 17 -2 13 -5z m3060 0 c-3 -3 -12 -4
-19 -1 -8 3 -5 6 6 6 11 1 17 -2 13 -5z m-179 -11 c-16 -2 -40 -2 -55 0 -16 2
-3 4 27 4 30 0 43 -2 28 -4z m-155 -10 c-7 -2 -19 -2 -25 0 -7 3 -2 5 12 5 14
0 19 -2 13 -5z m-2122 -150 c13 -16 12 -17 -3 -4 -10 7 -18 15 -18 17 0 8 8 3
21 -13z m2942 -10 c-13 -2 -35 -2 -50 0 -16 2 -5 4 22 4 28 0 40 -2 28 -4z
m-977 -310 c10 -63 11 -1051 1 -1175 -15 -192 -35 -316 -74 -453 -38 -133 -69
-188 -141 -247 -73 -60 -267 -121 -286 -90 -12 20 -39 185 -53 327 -24 253
-20 1433 5 1456 4 4 41 14 83 22 120 24 325 117 418 188 34 27 39 24 47 -28z
m1658 -228 l32 -34 249 16 c239 15 372 12 360 -8 -3 -5 1 -6 9 -3 17 7 21 -6
7 -21 -5 -6 -35 -62 -68 -125 -72 -140 -85 -163 -98 -172 -5 -4 -7 -8 -2 -8 8
0 -39 -97 -58 -120 -8 -8 -14 -18 -14 -23 -1 -8 -46 -98 -103 -207 -19 -36
-65 -123 -102 -195 -38 -71 -73 -133 -78 -136 -5 -3 -9 -10 -8 -15 2 -15 -33
-84 -42 -84 -5 0 -6 -4 -3 -10 3 -5 1 -10 -6 -10 -7 0 -10 -3 -6 -6 3 -3 -4
-23 -17 -43 -12 -20 -41 -75 -65 -123 -24 -49 -46 -88 -49 -88 -5 0 3 720 15
1183 3 147 8 267 11 267 2 0 19 -16 36 -35z m-3725 -306 c6 -17 9 -35 6 -39
-3 -5 1 -10 7 -13 7 -2 11 -7 8 -10 -3 -3 -47 13 -99 36 l-94 42 59 6 c32 3
69 6 81 7 15 2 24 -6 32 -29z m5179 -338 c10 -6 7 -10 -12 -13 -25 -5 -33 1
-19 15 8 9 15 9 31 -2z m-215 -800 c-2 -4 -22 -6 -143 -16 -47 -3 -96 -9 -109
-12 -23 -6 -22 -2 24 83 26 49 52 94 57 101 6 8 34 -13 91 -70 45 -45 81 -84
80 -86z m-2198 -827 c-4 -25 -18 -39 -68 -70 -34 -21 -81 -56 -104 -77 -23
-21 -47 -36 -52 -32 -7 3 -8 0 -5 -9 9 -22 -13 -20 -25 2 -8 15 -3 26 28 56
20 20 41 33 47 29 5 -5 6 -4 2 0 -8 11 81 133 94 129 5 -1 7 2 4 7 -9 14 34
92 47 84 6 -3 7 -1 3 5 -4 7 1 34 11 62 l18 51 3 -103 c2 -57 0 -117 -3 -134z"/>
</g>
</svg>
